<svg width="202" height="51" viewBox="0 0 202 51" fill="none" xmlns="http://www.w3.org/2000/svg">
<path d="M1 0.5H0.5V1V49.4084V49.9084H1H200.97H201.47V49.4084V1V0.5H200.97H1Z" fill="#DE1111" stroke="white"/>
<path d="M113.226 18.9425V27.5225H112.238V22.1275L112.355 19.8655H112.342L109.521 27.5225H108.637L105.816 19.8655H105.803L105.92 22.1275V27.5225H104.932V18.9425H106.531L108.416 24.1555L109.066 26.3005H109.092L109.755 24.1685L111.627 18.9425H113.226ZM118.422 20.8925C119.037 20.8925 119.579 21.0268 120.047 21.2955C120.524 21.5641 120.896 21.9541 121.165 22.4655C121.434 22.9681 121.568 23.5705 121.568 24.2725C121.568 24.9745 121.434 25.5811 121.165 26.0925C120.896 26.5951 120.524 26.9808 120.047 27.2495C119.579 27.5181 119.037 27.6525 118.422 27.6525C117.815 27.6525 117.274 27.5181 116.797 27.2495C116.32 26.9808 115.948 26.5951 115.679 26.0925C115.41 25.5811 115.276 24.9745 115.276 24.2725C115.276 23.5705 115.41 22.9681 115.679 22.4655C115.948 21.9541 116.32 21.5641 116.797 21.2955C117.274 21.0268 117.815 20.8925 118.422 20.8925ZM118.422 21.7895C117.98 21.7895 117.603 21.8891 117.291 22.0885C116.979 22.2878 116.736 22.5738 116.563 22.9465C116.398 23.3105 116.316 23.7525 116.316 24.2725C116.316 24.7838 116.398 25.2258 116.563 25.5985C116.736 25.9711 116.979 26.2571 117.291 26.4565C117.603 26.6558 117.98 26.7555 118.422 26.7555C118.864 26.7555 119.241 26.6558 119.553 26.4565C119.865 26.2571 120.103 25.9711 120.268 25.5985C120.441 25.2258 120.528 24.7838 120.528 24.2725C120.528 23.7525 120.441 23.3105 120.268 22.9465C120.103 22.5738 119.865 22.2878 119.553 22.0885C119.241 21.8891 118.864 21.7895 118.422 21.7895ZM123.526 27.5225V21.0225H124.371L124.514 22.0885C124.696 21.6898 124.96 21.3908 125.307 21.1915C125.662 20.9921 126.091 20.8925 126.594 20.8925C126.706 20.8925 126.828 20.9011 126.958 20.9185C127.096 20.9358 127.213 20.9705 127.309 21.0225L127.127 21.9715C127.031 21.9368 126.927 21.9108 126.815 21.8935C126.702 21.8761 126.542 21.8675 126.334 21.8675C126.065 21.8675 125.792 21.9455 125.515 22.1015C125.246 22.2575 125.021 22.4958 124.839 22.8165C124.657 23.1285 124.566 23.5271 124.566 24.0125V27.5225H123.526ZM131.346 27.6525C130.731 27.6525 130.181 27.5181 129.695 27.2495C129.219 26.9808 128.846 26.5951 128.577 26.0925C128.309 25.5811 128.174 24.9745 128.174 24.2725C128.174 23.5705 128.309 22.9681 128.577 22.4655C128.846 21.9541 129.214 21.5641 129.682 21.2955C130.15 21.0268 130.683 20.8925 131.281 20.8925C131.888 20.8925 132.404 21.0225 132.828 21.2825C133.262 21.5425 133.591 21.8978 133.816 22.3485C134.042 22.7905 134.154 23.2888 134.154 23.8435C134.154 23.9908 134.15 24.1251 134.141 24.2465C134.133 24.3678 134.12 24.4761 134.102 24.5715H128.85V23.6485H133.647L133.114 23.7525C133.114 23.1285 132.941 22.6475 132.594 22.3095C132.256 21.9715 131.81 21.8025 131.255 21.8025C130.831 21.8025 130.462 21.9021 130.15 22.1015C129.847 22.2921 129.609 22.5738 129.435 22.9465C129.271 23.3105 129.188 23.7525 129.188 24.2725C129.188 24.7838 129.275 25.2258 129.448 25.5985C129.622 25.9711 129.864 26.2571 130.176 26.4565C130.497 26.6471 130.878 26.7425 131.32 26.7425C131.797 26.7425 132.183 26.6515 132.477 26.4695C132.781 26.2875 133.023 26.0405 133.205 25.7285L134.024 26.2095C133.86 26.5041 133.647 26.7598 133.387 26.9765C133.136 27.1931 132.837 27.3621 132.49 27.4835C132.152 27.5961 131.771 27.6525 131.346 27.6525ZM136.652 25.9625C136.904 25.9625 137.107 26.0405 137.263 26.1965C137.419 26.3525 137.497 26.5561 137.497 26.8075C137.497 27.0588 137.419 27.2625 137.263 27.4185C137.107 27.5745 136.904 27.6525 136.652 27.6525C136.401 27.6525 136.197 27.5745 136.041 27.4185C135.885 27.2625 135.807 27.0588 135.807 26.8075C135.807 26.5561 135.885 26.3525 136.041 26.1965C136.197 26.0405 136.401 25.9625 136.652 25.9625ZM140.105 25.9625C140.357 25.9625 140.56 26.0405 140.716 26.1965C140.872 26.3525 140.95 26.5561 140.95 26.8075C140.95 27.0588 140.872 27.2625 140.716 27.4185C140.56 27.5745 140.357 27.6525 140.105 27.6525C139.854 27.6525 139.65 27.5745 139.494 27.4185C139.338 27.2625 139.26 27.0588 139.26 26.8075C139.26 26.5561 139.338 26.3525 139.494 26.1965C139.65 26.0405 139.854 25.9625 140.105 25.9625ZM143.559 25.9625C143.81 25.9625 144.014 26.0405 144.17 26.1965C144.326 26.3525 144.404 26.5561 144.404 26.8075C144.404 27.0588 144.326 27.2625 144.17 27.4185C144.014 27.5745 143.81 27.6525 143.559 27.6525C143.307 27.6525 143.104 27.5745 142.948 27.4185C142.792 27.2625 142.714 27.0588 142.714 26.8075C142.714 26.5561 142.792 26.3525 142.948 26.1965C143.104 26.0405 143.307 25.9625 143.559 25.9625Z" fill="white"/>
<path d="M44.1077 25.2471C44.3458 25.0108 44.3458 24.6277 44.1077 24.3914L40.2278 20.5405C39.9897 20.3042 39.6037 20.3042 39.3656 20.5405C39.1275 20.7768 39.1275 21.16 39.3656 21.3963L42.8144 24.8193L39.3656 28.2422C39.1275 28.4786 39.1275 28.8617 39.3656 29.098C39.6037 29.3343 39.9897 29.3343 40.2278 29.098L44.1077 25.2471ZM15.632 25.4244H43.6766V24.2141H15.632V25.4244Z" fill="white"/>
</svg>
