<svg width="202" height="51" viewBox="0 0 202 51" fill="none" xmlns="http://www.w3.org/2000/svg">
<path d="M1 0.5H0.5V1V49.4084V49.9084H1H200.97H201.47V49.4084V1V0.5H200.97H1Z" fill="white" stroke="black"/>
<path d="M76.0245 27.5225V18.9425H82.0435V19.9175H77.0645V22.6865H80.9385V23.6615H77.0645V26.5475H82.2385V27.5225H76.0245ZM84.1196 27.5225V21.0225H85.0296L85.1206 22.4785L84.9516 22.3355C85.0902 21.9889 85.2766 21.7115 85.5106 21.5035C85.7446 21.2869 86.0132 21.1309 86.3166 21.0355C86.6286 20.9402 86.9492 20.8925 87.2786 20.8925C87.7466 20.8925 88.1712 20.9835 88.5526 21.1655C88.9339 21.3389 89.2372 21.6075 89.4626 21.9715C89.6966 22.3355 89.8136 22.7992 89.8136 23.3625V27.5225H88.7736V23.7265C88.7736 23.0072 88.6176 22.5089 88.3056 22.2315C88.0022 21.9455 87.6252 21.8025 87.1746 21.8025C86.8626 21.8025 86.5506 21.8762 86.2386 22.0235C85.9266 22.1709 85.6666 22.4092 85.4586 22.7385C85.2592 23.0679 85.1596 23.5099 85.1596 24.0645V27.5225H84.1196ZM98.9391 27.6525C98.3064 27.6525 97.7214 27.5182 97.1841 27.2495C96.6554 26.9809 96.2481 26.5995 95.9621 26.1055L96.8461 25.4685C97.0367 25.8672 97.3141 26.1792 97.6781 26.4045C98.0507 26.6299 98.4971 26.7425 99.0171 26.7425C99.4764 26.7425 99.8361 26.6559 100.096 26.4825C100.356 26.3005 100.486 26.0665 100.486 25.7805C100.486 25.5985 100.425 25.4339 100.304 25.2865C100.191 25.1305 99.9704 25.0179 99.6411 24.9485L98.0811 24.6235C97.4484 24.4935 96.9934 24.2769 96.7161 23.9735C96.4474 23.6702 96.3131 23.2932 96.3131 22.8425C96.3131 22.4872 96.4127 22.1622 96.6121 21.8675C96.8201 21.5729 97.1104 21.3389 97.4831 21.1655C97.8644 20.9835 98.3107 20.8925 98.8221 20.8925C99.4634 20.8925 100.005 21.0182 100.447 21.2695C100.889 21.5209 101.218 21.8762 101.435 22.3355L100.564 22.9075C100.417 22.5262 100.178 22.2489 99.8491 22.0755C99.5197 21.8935 99.1774 21.8025 98.8221 21.8025C98.5101 21.8025 98.2414 21.8459 98.0161 21.9325C97.7994 22.0192 97.6304 22.1405 97.5091 22.2965C97.3964 22.4439 97.3401 22.6129 97.3401 22.8035C97.3401 22.9942 97.4051 23.1719 97.5351 23.3365C97.6651 23.4925 97.9077 23.6052 98.2631 23.6745L99.8881 24.0125C100.495 24.1339 100.919 24.3332 101.162 24.6105C101.405 24.8879 101.526 25.2259 101.526 25.6245C101.526 26.0319 101.418 26.3915 101.201 26.7035C100.984 27.0069 100.681 27.2409 100.291 27.4055C99.9011 27.5702 99.4504 27.6525 98.9391 27.6525ZM107.251 23.3235C107.251 22.8382 107.121 22.4655 106.861 22.2055C106.601 21.9369 106.232 21.8025 105.756 21.8025C105.305 21.8025 104.924 21.9022 104.612 22.1015C104.3 22.2922 104.07 22.6042 103.923 23.0375L103.078 22.5175C103.251 22.0322 103.572 21.6422 104.04 21.3475C104.508 21.0442 105.088 20.8925 105.782 20.8925C106.25 20.8925 106.674 20.9749 107.056 21.1395C107.437 21.2955 107.736 21.5382 107.953 21.8675C108.178 22.1882 108.291 22.6042 108.291 23.1155V26.2615C108.291 26.5735 108.455 26.7295 108.785 26.7295C108.949 26.7295 109.11 26.7079 109.266 26.6645L109.214 27.4835C109.04 27.5702 108.815 27.6135 108.538 27.6135C108.286 27.6135 108.061 27.5659 107.862 27.4705C107.662 27.3752 107.506 27.2322 107.394 27.0415C107.281 26.8422 107.225 26.5952 107.225 26.3005V26.1705L107.485 26.2095C107.381 26.5475 107.203 26.8249 106.952 27.0415C106.7 27.2495 106.419 27.4055 106.107 27.5095C105.795 27.6049 105.487 27.6525 105.184 27.6525C104.802 27.6525 104.447 27.5875 104.118 27.4575C103.788 27.3275 103.524 27.1325 103.325 26.8725C103.134 26.6039 103.039 26.2745 103.039 25.8845C103.039 25.3992 103.199 25.0005 103.52 24.6885C103.849 24.3679 104.304 24.1512 104.885 24.0385L107.459 23.5315V24.3895L105.366 24.8185C104.941 24.9052 104.625 25.0265 104.417 25.1825C104.209 25.3385 104.105 25.5552 104.105 25.8325C104.105 26.1012 104.209 26.3222 104.417 26.4955C104.633 26.6602 104.937 26.7425 105.327 26.7425C105.578 26.7425 105.816 26.7122 106.042 26.6515C106.276 26.5822 106.484 26.4825 106.666 26.3525C106.848 26.2139 106.991 26.0449 107.095 25.8455C107.199 25.6375 107.251 25.3949 107.251 25.1175V23.3235ZM114.905 21.0225H115.997L113.293 27.5225H112.253L109.549 21.0225H110.732L112.786 26.4695L114.905 21.0225ZM120.047 20.8925C120.662 20.8925 121.204 21.0269 121.672 21.2955C122.149 21.5642 122.521 21.9542 122.79 22.4655C123.059 22.9682 123.193 23.5705 123.193 24.2725C123.193 24.9745 123.059 25.5812 122.79 26.0925C122.521 26.5952 122.149 26.9809 121.672 27.2495C121.204 27.5182 120.662 27.6525 120.047 27.6525C119.44 27.6525 118.899 27.5182 118.422 27.2495C117.945 26.9809 117.573 26.5952 117.304 26.0925C117.035 25.5812 116.901 24.9745 116.901 24.2725C116.901 23.5705 117.035 22.9682 117.304 22.4655C117.573 21.9542 117.945 21.5642 118.422 21.2955C118.899 21.0269 119.44 20.8925 120.047 20.8925ZM120.047 21.7895C119.605 21.7895 119.228 21.8892 118.916 22.0885C118.604 22.2879 118.361 22.5739 118.188 22.9465C118.023 23.3105 117.941 23.7525 117.941 24.2725C117.941 24.7839 118.023 25.2259 118.188 25.5985C118.361 25.9712 118.604 26.2572 118.916 26.4565C119.228 26.6559 119.605 26.7555 120.047 26.7555C120.489 26.7555 120.866 26.6559 121.178 26.4565C121.49 26.2572 121.728 25.9712 121.893 25.5985C122.066 25.2259 122.153 24.7839 122.153 24.2725C122.153 23.7525 122.066 23.3105 121.893 22.9465C121.728 22.5739 121.49 22.2879 121.178 22.0885C120.866 21.8892 120.489 21.7895 120.047 21.7895ZM125.671 19.7745C125.437 19.7745 125.246 19.7052 125.099 19.5665C124.96 19.4192 124.891 19.2285 124.891 18.9945C124.891 18.7605 124.96 18.5742 125.099 18.4355C125.246 18.2882 125.437 18.2145 125.671 18.2145C125.905 18.2145 126.091 18.2882 126.23 18.4355C126.377 18.5742 126.451 18.7605 126.451 18.9945C126.451 19.2285 126.377 19.4192 126.23 19.5665C126.091 19.7052 125.905 19.7745 125.671 19.7745ZM126.191 21.0225V27.5225H125.151V21.0225H126.191ZM128.604 27.5225V21.0225H129.449L129.592 22.0885C129.774 21.6899 130.038 21.3909 130.385 21.1915C130.74 20.9922 131.169 20.8925 131.672 20.8925C131.785 20.8925 131.906 20.9012 132.036 20.9185C132.175 20.9359 132.292 20.9705 132.387 21.0225L132.205 21.9715C132.11 21.9369 132.006 21.9109 131.893 21.8935C131.78 21.8762 131.62 21.8675 131.412 21.8675C131.143 21.8675 130.87 21.9455 130.593 22.1015C130.324 22.2575 130.099 22.4959 129.917 22.8165C129.735 23.1285 129.644 23.5272 129.644 24.0125V27.5225H128.604ZM138.037 30.2525V21.0225H138.947L139.038 22.6085L138.895 22.4265C139.007 22.1232 139.176 21.8589 139.402 21.6335C139.627 21.3995 139.9 21.2175 140.221 21.0875C140.541 20.9575 140.888 20.8925 141.261 20.8925C141.789 20.8925 142.275 21.0269 142.717 21.2955C143.167 21.5642 143.527 21.9499 143.796 22.4525C144.064 22.9552 144.199 23.5619 144.199 24.2725C144.199 24.9745 144.06 25.5812 143.783 26.0925C143.514 26.5952 143.154 26.9809 142.704 27.2495C142.253 27.5182 141.759 27.6525 141.222 27.6525C140.684 27.6525 140.212 27.5225 139.805 27.2625C139.406 26.9939 139.12 26.6559 138.947 26.2485L139.077 26.0535V30.2525H138.037ZM141.118 26.7425C141.759 26.7425 142.257 26.5172 142.613 26.0665C142.977 25.6159 143.159 25.0179 143.159 24.2725C143.159 23.5272 142.981 22.9292 142.626 22.4785C142.279 22.0279 141.789 21.8025 141.157 21.8025C140.741 21.8025 140.377 21.9065 140.065 22.1145C139.753 22.3139 139.51 22.5999 139.337 22.9725C139.163 23.3365 139.077 23.7699 139.077 24.2725C139.077 24.7665 139.159 25.1999 139.324 25.5725C139.497 25.9452 139.735 26.2355 140.039 26.4435C140.351 26.6429 140.71 26.7425 141.118 26.7425ZM147.175 18.0325V25.8715C147.175 26.2009 147.236 26.4305 147.357 26.5605C147.478 26.6819 147.673 26.7425 147.942 26.7425C148.115 26.7425 148.258 26.7295 148.371 26.7035C148.484 26.6775 148.635 26.6299 148.826 26.5605L148.657 27.4705C148.518 27.5312 148.367 27.5745 148.202 27.6005C148.037 27.6352 147.868 27.6525 147.695 27.6525C147.166 27.6525 146.772 27.5095 146.512 27.2235C146.261 26.9375 146.135 26.4999 146.135 25.9105V18.0325H147.175ZM152.514 27.6525C152.098 27.6525 151.703 27.5745 151.331 27.4185C150.967 27.2625 150.668 27.0112 150.434 26.6645C150.208 26.3092 150.096 25.8499 150.096 25.2865V21.0225H151.136V25.0135C151.136 25.6722 151.279 26.1272 151.565 26.3785C151.851 26.6212 152.254 26.7425 152.774 26.7425C153.016 26.7425 153.255 26.7035 153.489 26.6255C153.723 26.5389 153.931 26.4089 154.113 26.2355C154.303 26.0535 154.451 25.8239 154.555 25.5465C154.667 25.2692 154.724 24.9399 154.724 24.5585V21.0225H155.764V27.5225H154.854L154.789 26.5345C154.563 26.9245 154.256 27.2105 153.866 27.3925C153.484 27.5659 153.034 27.6525 152.514 27.6525ZM160.524 27.6525C159.891 27.6525 159.306 27.5182 158.769 27.2495C158.24 26.9809 157.833 26.5995 157.547 26.1055L158.431 25.4685C158.622 25.8672 158.899 26.1792 159.263 26.4045C159.636 26.6299 160.082 26.7425 160.602 26.7425C161.061 26.7425 161.421 26.6559 161.681 26.4825C161.941 26.3005 162.071 26.0665 162.071 25.7805C162.071 25.5985 162.01 25.4339 161.889 25.2865C161.776 25.1305 161.555 25.0179 161.226 24.9485L159.666 24.6235C159.033 24.4935 158.578 24.2769 158.301 23.9735C158.032 23.6702 157.898 23.2932 157.898 22.8425C157.898 22.4872 157.998 22.1622 158.197 21.8675C158.405 21.5729 158.695 21.3389 159.068 21.1655C159.449 20.9835 159.896 20.8925 160.407 20.8925C161.048 20.8925 161.59 21.0182 162.032 21.2695C162.474 21.5209 162.803 21.8762 163.02 22.3355L162.149 22.9075C162.002 22.5262 161.763 22.2489 161.434 22.0755C161.105 21.8935 160.762 21.8025 160.407 21.8025C160.095 21.8025 159.826 21.8459 159.601 21.9325C159.384 22.0192 159.215 22.1405 159.094 22.2965C158.981 22.4439 158.925 22.6129 158.925 22.8035C158.925 22.9942 158.99 23.1719 159.12 23.3365C159.25 23.4925 159.493 23.6052 159.848 23.6745L161.473 24.0125C162.08 24.1339 162.504 24.3332 162.747 24.6105C162.99 24.8879 163.111 25.2259 163.111 25.6245C163.111 26.0319 163.003 26.3915 162.786 26.7035C162.569 27.0069 162.266 27.2409 161.876 27.4055C161.486 27.5702 161.035 27.6525 160.524 27.6525ZM165.559 25.9625C165.811 25.9625 166.014 26.0405 166.17 26.1965C166.326 26.3525 166.404 26.5562 166.404 26.8075C166.404 27.0589 166.326 27.2625 166.17 27.4185C166.014 27.5745 165.811 27.6525 165.559 27.6525C165.308 27.6525 165.104 27.5745 164.948 27.4185C164.792 27.2625 164.714 27.0589 164.714 26.8075C164.714 26.5562 164.792 26.3525 164.948 26.1965C165.104 26.0405 165.308 25.9625 165.559 25.9625ZM169.013 25.9625C169.264 25.9625 169.468 26.0405 169.624 26.1965C169.78 26.3525 169.858 26.5562 169.858 26.8075C169.858 27.0589 169.78 27.2625 169.624 27.4185C169.468 27.5745 169.264 27.6525 169.013 27.6525C168.761 27.6525 168.558 27.5745 168.402 27.4185C168.246 27.2625 168.168 27.0589 168.168 26.8075C168.168 26.5562 168.246 26.3525 168.402 26.1965C168.558 26.0405 168.761 25.9625 169.013 25.9625ZM172.466 25.9625C172.717 25.9625 172.921 26.0405 173.077 26.1965C173.233 26.3525 173.311 26.5562 173.311 26.8075C173.311 27.0589 173.233 27.2625 173.077 27.4185C172.921 27.5745 172.717 27.6525 172.466 27.6525C172.214 27.6525 172.011 27.5745 171.855 27.4185C171.699 27.2625 171.621 27.0589 171.621 26.8075C171.621 26.5562 171.699 26.3525 171.855 26.1965C172.011 26.0405 172.214 25.9625 172.466 25.9625Z" fill="black"/>
<path d="M44.1077 25.2472C44.3458 25.0109 44.3458 24.6278 44.1077 24.3915L40.2278 20.5406C39.9897 20.3043 39.6037 20.3043 39.3656 20.5406C39.1275 20.7769 39.1275 21.16 39.3656 21.3963L42.8144 24.8193L39.3656 28.2423C39.1275 28.4786 39.1275 28.8618 39.3656 29.0981C39.6037 29.3344 39.9897 29.3344 40.2278 29.0981L44.1077 25.2472ZM15.632 25.4244H43.6766V24.2142H15.632V25.4244Z" fill="black"/>
</svg>
