<svg width="24" height="22" viewBox="0 0 24 22" fill="none" xmlns="http://www.w3.org/2000/svg">
<path d="M12.0027 5.35948C8.59745 5.35948 5.85076 7.87784 5.85076 11C5.85076 14.1221 8.59745 16.6405 12.0027 16.6405C15.4079 16.6405 18.1546 14.1221 18.1546 11C18.1546 7.87784 15.4079 5.35948 12.0027 5.35948ZM12.0027 14.6671C9.80213 14.6671 8.00313 13.0226 8.00313 11C8.00313 8.97747 9.79678 7.33294 12.0027 7.33294C14.2086 7.33294 16.0023 8.97747 16.0023 11C16.0023 13.0226 14.2032 14.6671 12.0027 14.6671ZM19.8412 5.12876C19.8412 5.86021 19.1987 6.44439 18.4062 6.44439C17.6085 6.44439 16.9714 5.8553 16.9714 5.12876C16.9714 4.40222 17.6139 3.81312 18.4062 3.81312C19.1987 3.81312 19.8412 4.40222 19.8412 5.12876ZM23.9157 6.46403C23.8247 4.70167 23.3856 3.14058 21.9775 1.8544C20.5747 0.568225 18.8721 0.165681 16.9499 0.077318C14.9689 -0.0257727 9.03113 -0.0257727 7.05009 0.077318C5.13331 0.160772 3.43068 0.563316 2.02253 1.8495C0.61439 3.13567 0.180703 4.69676 0.084328 6.45912C-0.0281093 8.27548 -0.0281093 13.7197 0.084328 15.536C0.175349 17.2984 0.61439 18.8594 2.02253 20.1456C3.43068 21.4318 5.12794 21.8344 7.05009 21.9227C9.03113 22.0258 14.9689 22.0258 16.9499 21.9227C18.8721 21.8392 20.5747 21.4367 21.9775 20.1456C23.3802 18.8594 23.8193 17.2984 23.9157 15.536C24.0281 13.7197 24.0281 8.28038 23.9157 6.46403ZM21.3564 17.4849C20.9388 18.4471 20.1303 19.1883 19.0756 19.5762C17.496 20.1505 13.7482 20.0179 12.0027 20.0179C10.2572 20.0179 6.50397 20.1456 4.92985 19.5762C3.88043 19.1933 3.07196 18.452 2.64897 17.4849C2.02253 16.0367 2.16709 12.6004 2.16709 11C2.16709 9.39965 2.02789 5.95839 2.64897 4.51512C3.06659 3.55295 3.87507 2.81167 4.92985 2.42385C6.50932 1.8495 10.2572 1.98204 12.0027 1.98204C13.7482 1.98204 17.5014 1.8544 19.0756 2.42385C20.125 2.80676 20.9334 3.54803 21.3564 4.51512C21.9828 5.96331 21.8382 9.39965 21.8382 11C21.8382 12.6004 21.9828 16.0416 21.3564 17.4849Z" fill="white"/>
</svg>
