<svg width="26" height="20" viewBox="0 0 26 20" fill="none" xmlns="http://www.w3.org/2000/svg">
<g clip-path="url(#clip0_1314_847)">
<path d="M25.4567 3.12932C25.1577 1.89755 24.2767 0.927448 23.1581 0.598229C21.1304 0 13 0 13 0C13 0 4.86961 0 2.84197 0.598229C1.72334 0.9275 0.842317 1.89755 0.543295 3.12932C0 5.36197 0 10.0202 0 10.0202C0 10.0202 0 14.6785 0.543295 16.9111C0.842317 18.1429 1.72334 19.0725 2.84197 19.4018C4.86961 20 13 20 13 20C13 20 21.1304 20 23.1581 19.4018C24.2767 19.0725 25.1577 18.1429 25.4567 16.9111C26 14.6785 26 10.0202 26 10.0202C26 10.0202 26 5.36197 25.4567 3.12932ZM10.3409 14.2495V5.79089L17.1364 10.0203L10.3409 14.2495Z" fill="white"/>
</g>
<defs>
<clipPath id="clip0_1314_847">
<rect width="26" height="20" fill="white"/>
</clipPath>
</defs>
</svg>
